Coordinates
nRows=17
nColumns=24

# SIMM Motion File Header:
name Coordinates
datacolumns 24
datarows 17
otherdata 1
range 0.54766999999999999000 0.56367000000000000000
endheader
time	pelvis_tx	pelvis_ty	pelvis_tz	pelvis_tilt	pelvis_list	pelvis_rotation	hip_flexion_r	hip_adduction_r	hip_rotation_r	knee_angle_r	ankle_angle_r	subtalar_angle_r	mtp_angle_r	hip_flexion_l	hip_adduction_l	hip_rotation_l	knee_angle_l	ankle_angle_l	subtalar_angle_l	mtp_angle_l	lumbar_extension	lumbar_bending	lumbar_rotation
      0.54766999999999999000	      1.20979000463847460000	      0.92913724849314705000	     -0.17935441894376797000	      0.09268550484348073200	      7.82821403762691490000	     -4.67881445595488720000	    -12.77383782370653600000	     -8.21155660332902220000	      5.46663810314750260000	    -32.46563786088197600000	    -19.06145523495177900000	     -0.00000000000003982091	     -0.00000000000023036691	     22.26046158859353600000	     11.90885047784197100000	      1.26049195532717230000	    -16.32752603532615200000	     -5.74634793195107550000	     -0.00000000000003782791	      0.00000000000006276813	      0.55418782740772377000	     -7.00507070338390210000	      7.27783560384990840000
      0.54866999999999999000	      1.21143240434012680000	      0.92927275374196272000	     -0.17942826433123399000	      0.06877494618898522000	      7.87284492370721980000	     -4.65064134024892530000	    -12.60335989310212300000	     -8.29678320461275300000	      5.39482985431291520000	    -32.76575876956512400000	    -19.61450183827437500000	     -0.00000000000003986211	     -0.00000000000023076581	     22.21196480905573600000	     11.99137819095897900000	      1.41958265276836990000	    -16.39017983482936800000	     -5.56073564752902790000	     -0.00000000000003792897	      0.00000000000006308914	      0.59005522295313684000	     -7.06817236608822700000	      7.22577133868438800000
      0.54966999999999999000	      1.21307480404177910000	      0.92940825899077839000	     -0.17950210971870001000	      0.04486438753448970100	      7.91747580978752370000	     -4.62246822454296340000	    -12.43288196249771000000	     -8.38200980589648200000	      5.32302160547832860000	    -33.06587967824826500000	    -20.16754844159697400000	     -0.00000000000003990330	     -0.00000000000023116471	     22.16346802951793300000	     12.07390590407598700000	      1.57867335020956730000	    -16.45283363433258100000	     -5.37512336310698120000	     -0.00000000000003803003	      0.00000000000006341016	      0.62592261849854991000	     -7.13127402879255180000	      7.17370707351886770000
      0.55066999999999999000	      1.21470878565494660000	      0.92954467161597365000	     -0.17957356336108415000	      0.02146202864448185800	      7.96212901245634890000	     -4.59483853878854910000	    -12.25913510814617900000	     -8.46769297107123010000	      5.25247345891290430000	    -33.36993598453754800000	    -20.70419180818318200000	     -0.00000000000003991499	     -0.00000000000023157160	     22.11200607616184400000	     12.15480201735586400000	      1.73356697277722290000	    -16.51059478554176300000	     -5.19435130247083790000	     -0.00000000000003814742	      0.00000000000006373767	      0.66031160058194582000	     -7.19467913422312750000	      7.12092683737373020000
      0.55166999999999999000	      1.21634156468404480000	      0.92968121386636604000	     -0.17964467532559944000	     -0.00186773027917035300	      8.00678540320924800000	     -4.56728648588435600000	    -12.08492126468791200000	     -8.55344135965898110000	      5.18210532695736160000	    -33.67455449048485900000	    -21.23849185523561200000	     -0.00000000000003992246	     -0.00000000000023197964	     22.06012052654599700000	     12.23546504494472000000	      1.88786101322008460000	    -16.56765698699464600000	     -5.01427070237554060000	     -0.00000000000003826715	      0.00000000000006406611	      0.69448938074219568000	     -7.25812758861459710000	      7.06804431966007570000
      0.55266999999999999000	      1.21796911740983770000	      0.92981820084386002000	     -0.17971418860232163000	     -0.02489904377478933300	      8.05138112451822610000	     -4.54016569810432370000	    -11.90873941638001400000	     -8.63934905118833640000	      5.11278141586034970000	    -33.98158926231048600000	    -21.76072598831890700000	     -0.00000000000003991970	     -0.00000000000023239838	     22.00641789016369600000	     12.31500585725780900000	      2.03908760052038170000	    -16.62169136971738600000	     -4.83713807706343600000	     -0.00000000000003839624	      0.00000000000006441191	      0.72779310320348845000	     -7.32165400366539560000	      7.01484884428255120000
      0.55367000000000000000	      1.21959144383232520000	      0.92995563254845592000	     -0.17978210319125068000	     -0.04763191184237487700	      8.09591617638328390000	     -4.51347617544845110000	    -11.73058956322247900000	     -8.72541604565929770000	      5.04450172562186960000	    -34.29104030001443000000	    -22.27089420743305900000	     -0.00000000000003990671	     -0.00000000000023282785	     21.95089816701494100000	     12.39342445429513300000	      2.18724673467811260000	    -16.67269793370997300000	     -4.66295342653452490000	     -0.00000000000003853468	      0.00000000000006477508	      0.76022276796582366000	     -7.38525837937552240000	      6.96134041124115650000
      0.55467000000000000000	      1.22121377025481270000	      0.93009306425305172000	     -0.17985001778017976000	     -0.07036477990996035900	      8.14045122824834340000	     -4.48678665279257860000	    -11.55243971006494500000	     -8.81148304013025730000	      4.97622203538339040000	    -34.60049133771838100000	    -22.78106242654720500000	     -0.00000000000003989372	     -0.00000000000023325731	     21.89537844386618600000	     12.47184305133245500000	      2.33540586883584260000	    -16.72370449770256000000	     -4.48876877600561470000	     -0.00000000000003867311	      0.00000000000006513825	      0.79265243272815866000	     -7.44886275508565010000	      6.90783197819976100000
      0.55567000000000000000	      1.22282635788817550000	      0.93023123922610773000	     -0.17991488545181750000	     -0.09254738737239171000	      8.18467348235630250000	     -4.46098138865666800000	    -11.37078458186809900000	     -8.89754005770411990000	      4.91027618003120380000	    -34.91421777553922100000	    -23.26625359106232000000	     -0.00000000000003989113	     -0.00000000000023358331	     21.83648587905866000000	     12.54795121776971800000	      2.47717390974601550000	    -16.76913238855805900000	     -4.31999470158559620000	     -0.00000000000003882985	      0.00000000000006558517	      0.82348764279880127000	     -7.51233660927472880000	      6.85387178974312670000
      0.55667000000000000000	      1.22443894552153830000	      0.93036941419916375000	     -0.17997975312345524000	     -0.11472999483482305000	      8.22889573646426340000	     -4.43517612452075750000	    -11.18912945367125300000	     -8.98359707527798260000	      4.84433032467901730000	    -35.22794421336006100000	    -23.75144475557743500000	     -0.00000000000003988854	     -0.00000000000023390930	     21.77759331425113800000	     12.62405938420698200000	      2.61894195065618840000	    -16.81456027941355600000	     -4.15122062716557760000	     -0.00000000000003898658	      0.00000000000006603208	      0.85432285286944387000	     -7.57581046346380660000	      6.79991160128649240000
      0.55767000000000000000	      1.22604312910219630000	      0.93050833134342836000	     -0.18004212641072059000	     -0.13636074488515124000	      8.27268477482526700000	     -4.41006484489138990000	    -11.00472469665122900000	     -9.06938682810903350000	      4.78052255843750460000	    -35.54499612045413000000	    -24.21371304695222900000	     -0.00000000000003989317	     -0.00000000000023416130	     21.71572991692786700000	     12.69806857161081100000	      2.75487793718848020000	    -16.85533020238308300000	     -3.98708899099837800000	     -0.00000000000003914908	      0.00000000000006646685	      0.88369437851751598000	     -7.63895913692159920000	      6.74550626894714170000
      0.55867000000000000000	      1.22764675241267400000	      0.93064729796577361000	     -0.18010433340569446000	     -0.15795470444133902000	      8.31644493213647170000	     -4.38499983089579270000	    -10.82013663104299000000	     -9.15515876329056510000	      4.71685733147003730000	    -35.86226972549975000000	    -24.67445314678432300000	     -0.00000000000003989829	     -0.00000000000023440837	     21.65366846410354600000	     12.77193782707907800000	      2.89042512009557840000	    -16.89578959416021000000	     -3.82326685071470120000	     -0.00000000000003931197	      0.00000000000006690080	      0.91296832520408278000	     -7.70208613166397350000	      6.69107126034894420000
      0.55967000000000000000	      1.22924300974438430000	      0.93078681555057807000	     -0.18016436044363532000	     -0.17910717808823823000	      8.35964991144958350000	     -4.36059357337082250000	    -10.63320183913841000000	     -9.24042543381847280000	      4.65534812490667260000	    -36.18237263794516400000	    -25.11249726136194500000	     -0.00000000000003987688	     -0.00000000000023466590	     21.58909611953349400000	     12.84379529610345800000	      3.02044579735012770000	    -16.93232303627201300000	     -3.66342253873506610000	     -0.00000000000003946554	      0.00000000000006729874	      0.94102388826298144000	     -7.76467830287308300000	      6.63632926027531060000
      0.56067000000000000000	      1.23083681174983890000	      0.93092651678953564000	     -0.18022366082923189000	     -0.20011248976537452000	      8.40266983142999630000	     -4.33640690133606200000	    -10.44548480513504700000	     -9.32552368279517200000	      4.59455759181134220000	    -36.50341865285717100000	    -25.54297604752140300000	     -0.00000000000003984663	     -0.00000000000023492691	     21.52368681104819700000	     12.91498216964654200000	      3.14862430605382660000	    -16.96754782849537000000	     -3.50490416952344530000	     -0.00000000000003961601	      0.00000000000006768469	      0.96867332344599055000	     -7.82709219957110580000	      6.58148492970986430000
      0.56167000000000000000	      1.23242815870504650000	      0.93106640507189975000	     -0.18028222057693147000	     -0.22096337362259658000	      8.44545357924309850000	     -4.31247371073995020000	    -10.25702348060380400000	     -9.41037595304473130000	      4.53459234846160890000	    -36.82535798226861300000	    -25.96516308204487800000	     -0.00000000000003981294	     -0.00000000000023520733	     21.45743565754358400000	     12.98544301362637700000	      3.27478156530606770000	    -17.00146798605216200000	     -3.34777856307159280000	     -0.00000000000003975426	      0.00000000000006803993	      0.99591670237208019000	     -7.88925235648566490000	      6.52657754833069870000
      0.56267000000000000000	      1.23401214050951350000	      0.93120685448448381000	     -0.18033855841094013000	     -0.24135097402007652000	      8.48752881055426830000	     -4.28930096445978660000	    -10.06632928448892100000	     -9.49449028711286580000	      4.47710297434866260000	    -37.14997725517834900000	    -26.36247486166042400000	     -0.00000000000003976890	     -0.00000000000023554599	     21.38865896898103700000	     13.05372576891646100000	      3.39487507620394350000	    -17.03147423960926300000	     -3.19483124489904120000	     -0.00000000000003985582	      0.00000000000006830305	      1.02194191252741300000	     -7.95065129404983840000	      6.47148101451037760000
      0.56367000000000000000	      1.23559612231398040000	      0.93134730389706788000	     -0.18039489624494878000	     -0.26173857441755649000	      8.52960404186543820000	     -4.26612821817962380000	     -9.87563508837403960000	     -9.57860462118100210000	      4.41961360023571630000	    -37.47459652808808500000	    -26.75978664127596600000	     -0.00000000000003972486	     -0.00000000000023588464	     21.31988228041849000000	     13.12200852420654800000	      3.51496858710181880000	    -17.06148049316636100000	     -3.04188392672648920000	     -0.00000000000003995738	      0.00000000000006856618	      1.04796712268274580000	     -8.01205023161401010000	      6.41638448069005650000
